<mxfile host="app.diagrams.net" modified="2022-04-19T17:46:00.886Z" agent="5.0 (Macintosh; Intel Mac OS X 10_15_7) AppleWebKit/605.1.15 (KHTML, like Gecko) Version/14.1.2 Safari/605.1.15" etag="_ceHFDs2snpaBEMoxadJ" version="17.4.5" type="github">
  <diagram id="94svkGbV2cI4KzhlTLPM" name="Page-1">
    <mxGraphModel dx="946" dy="645" grid="1" gridSize="10" guides="1" tooltips="1" connect="1" arrows="1" fold="1" page="1" pageScale="1" pageWidth="827" pageHeight="1169" math="0" shadow="0">
      <root>
        <mxCell id="0" />
        <mxCell id="1" parent="0" />
        <mxCell id="NXsq1GDVUCKjEuFfaTdG-1" value="Long to Short(62 character set)" style="rounded=1;whiteSpace=wrap;html=1;" vertex="1" parent="1">
          <mxGeometry x="60" y="205" width="90" height="60" as="geometry" />
        </mxCell>
        <mxCell id="NXsq1GDVUCKjEuFfaTdG-2" value="LB" style="rounded=0;whiteSpace=wrap;html=1;" vertex="1" parent="1">
          <mxGeometry x="170" y="60" width="50" height="350" as="geometry" />
        </mxCell>
        <mxCell id="NXsq1GDVUCKjEuFfaTdG-3" value="" style="endArrow=classic;startArrow=classic;html=1;rounded=0;" edge="1" parent="1">
          <mxGeometry width="50" height="50" relative="1" as="geometry">
            <mxPoint x="220" y="160" as="sourcePoint" />
            <mxPoint x="330" y="160" as="targetPoint" />
          </mxGeometry>
        </mxCell>
        <mxCell id="NXsq1GDVUCKjEuFfaTdG-4" value="" style="endArrow=classic;startArrow=classic;html=1;rounded=0;" edge="1" parent="1">
          <mxGeometry width="50" height="50" relative="1" as="geometry">
            <mxPoint x="220" y="320" as="sourcePoint" />
            <mxPoint x="330" y="320" as="targetPoint" />
          </mxGeometry>
        </mxCell>
        <mxCell id="NXsq1GDVUCKjEuFfaTdG-5" value="URL Short Service" style="rounded=1;whiteSpace=wrap;html=1;" vertex="1" parent="1">
          <mxGeometry x="330" y="130" width="90" height="60" as="geometry" />
        </mxCell>
        <mxCell id="NXsq1GDVUCKjEuFfaTdG-6" value="&lt;span&gt;URL Short Service&lt;/span&gt;" style="rounded=1;whiteSpace=wrap;html=1;" vertex="1" parent="1">
          <mxGeometry x="330" y="300" width="90" height="60" as="geometry" />
        </mxCell>
        <mxCell id="NXsq1GDVUCKjEuFfaTdG-7" value="Cassandra" style="rounded=1;whiteSpace=wrap;html=1;" vertex="1" parent="1">
          <mxGeometry x="660" y="140" width="90" height="60" as="geometry" />
        </mxCell>
        <mxCell id="NXsq1GDVUCKjEuFfaTdG-8" value="" style="endArrow=classic;html=1;rounded=0;entryX=0.25;entryY=1;entryDx=0;entryDy=0;" edge="1" parent="1" target="NXsq1GDVUCKjEuFfaTdG-7">
          <mxGeometry width="50" height="50" relative="1" as="geometry">
            <mxPoint x="420" y="330" as="sourcePoint" />
            <mxPoint x="620" y="330" as="targetPoint" />
          </mxGeometry>
        </mxCell>
        <mxCell id="NXsq1GDVUCKjEuFfaTdG-10" value="" style="endArrow=classic;html=1;rounded=0;entryX=0;entryY=0.5;entryDx=0;entryDy=0;" edge="1" parent="1" target="NXsq1GDVUCKjEuFfaTdG-7">
          <mxGeometry width="50" height="50" relative="1" as="geometry">
            <mxPoint x="420" y="160" as="sourcePoint" />
            <mxPoint x="682.5" y="30" as="targetPoint" />
          </mxGeometry>
        </mxCell>
        <mxCell id="NXsq1GDVUCKjEuFfaTdG-11" value="Token Service (Return range of number that can be used to create url. Ex - 1..1000, so for 1 the url can be generated using 1 mod 62 )" style="rounded=1;whiteSpace=wrap;html=1;" vertex="1" parent="1">
          <mxGeometry x="610" y="340" width="120" height="100" as="geometry" />
        </mxCell>
        <mxCell id="NXsq1GDVUCKjEuFfaTdG-12" value="" style="endArrow=classic;startArrow=classic;html=1;rounded=0;entryX=0;entryY=0.25;entryDx=0;entryDy=0;" edge="1" parent="1" target="NXsq1GDVUCKjEuFfaTdG-11">
          <mxGeometry width="50" height="50" relative="1" as="geometry">
            <mxPoint x="420" y="190" as="sourcePoint" />
            <mxPoint x="470" y="140" as="targetPoint" />
          </mxGeometry>
        </mxCell>
        <mxCell id="NXsq1GDVUCKjEuFfaTdG-13" value="" style="endArrow=classic;startArrow=classic;html=1;rounded=0;" edge="1" parent="1">
          <mxGeometry width="50" height="50" relative="1" as="geometry">
            <mxPoint x="400" y="360" as="sourcePoint" />
            <mxPoint x="610" y="420" as="targetPoint" />
          </mxGeometry>
        </mxCell>
        <mxCell id="NXsq1GDVUCKjEuFfaTdG-16" value="Short to Long" style="rounded=1;whiteSpace=wrap;html=1;" vertex="1" parent="1">
          <mxGeometry x="80" y="630" width="90" height="60" as="geometry" />
        </mxCell>
        <mxCell id="NXsq1GDVUCKjEuFfaTdG-17" value="LB" style="rounded=0;whiteSpace=wrap;html=1;" vertex="1" parent="1">
          <mxGeometry x="190" y="500" width="50" height="350" as="geometry" />
        </mxCell>
        <mxCell id="NXsq1GDVUCKjEuFfaTdG-20" value="" style="edgeStyle=orthogonalEdgeStyle;rounded=0;orthogonalLoop=1;jettySize=auto;html=1;" edge="1" parent="1" source="NXsq1GDVUCKjEuFfaTdG-18" target="NXsq1GDVUCKjEuFfaTdG-19">
          <mxGeometry relative="1" as="geometry" />
        </mxCell>
        <mxCell id="NXsq1GDVUCKjEuFfaTdG-18" value="&lt;span&gt;URL Short Service&lt;/span&gt;" style="rounded=1;whiteSpace=wrap;html=1;" vertex="1" parent="1">
          <mxGeometry x="310" y="630" width="90" height="60" as="geometry" />
        </mxCell>
        <mxCell id="NXsq1GDVUCKjEuFfaTdG-19" value="Cassandra" style="whiteSpace=wrap;html=1;rounded=1;" vertex="1" parent="1">
          <mxGeometry x="465" y="630" width="120" height="60" as="geometry" />
        </mxCell>
        <mxCell id="NXsq1GDVUCKjEuFfaTdG-21" value="" style="edgeStyle=orthogonalEdgeStyle;rounded=0;orthogonalLoop=1;jettySize=auto;html=1;" edge="1" parent="1">
          <mxGeometry relative="1" as="geometry">
            <mxPoint x="240" y="659.5" as="sourcePoint" />
            <mxPoint x="305" y="659.5" as="targetPoint" />
          </mxGeometry>
        </mxCell>
        <mxCell id="NXsq1GDVUCKjEuFfaTdG-24" value="" style="edgeStyle=orthogonalEdgeStyle;rounded=0;orthogonalLoop=1;jettySize=auto;html=1;" edge="1" parent="1" source="NXsq1GDVUCKjEuFfaTdG-22" target="NXsq1GDVUCKjEuFfaTdG-23">
          <mxGeometry relative="1" as="geometry" />
        </mxCell>
        <mxCell id="NXsq1GDVUCKjEuFfaTdG-22" value="Async Worker" style="rounded=1;whiteSpace=wrap;html=1;" vertex="1" parent="1">
          <mxGeometry x="155" y="900" width="120" height="60" as="geometry" />
        </mxCell>
        <mxCell id="NXsq1GDVUCKjEuFfaTdG-26" value="" style="edgeStyle=orthogonalEdgeStyle;rounded=0;orthogonalLoop=1;jettySize=auto;html=1;" edge="1" parent="1" source="NXsq1GDVUCKjEuFfaTdG-23" target="NXsq1GDVUCKjEuFfaTdG-25">
          <mxGeometry relative="1" as="geometry" />
        </mxCell>
        <mxCell id="NXsq1GDVUCKjEuFfaTdG-23" value="KAFKA" style="whiteSpace=wrap;html=1;rounded=1;" vertex="1" parent="1">
          <mxGeometry x="350" y="900" width="120" height="60" as="geometry" />
        </mxCell>
        <mxCell id="NXsq1GDVUCKjEuFfaTdG-25" value="Analytics" style="whiteSpace=wrap;html=1;rounded=1;" vertex="1" parent="1">
          <mxGeometry x="550" y="900" width="120" height="60" as="geometry" />
        </mxCell>
        <mxCell id="NXsq1GDVUCKjEuFfaTdG-27" value="Batch data and send them after certain threshold" style="rounded=1;whiteSpace=wrap;html=1;" vertex="1" parent="1">
          <mxGeometry x="155" y="1030" width="120" height="60" as="geometry" />
        </mxCell>
        <mxCell id="NXsq1GDVUCKjEuFfaTdG-28" value="" style="endArrow=classic;html=1;rounded=0;exitX=1;exitY=0.5;exitDx=0;exitDy=0;" edge="1" parent="1" source="NXsq1GDVUCKjEuFfaTdG-27">
          <mxGeometry width="50" height="50" relative="1" as="geometry">
            <mxPoint x="310" y="1010" as="sourcePoint" />
            <mxPoint x="360" y="960" as="targetPoint" />
          </mxGeometry>
        </mxCell>
      </root>
    </mxGraphModel>
  </diagram>
</mxfile>
